# File created by Blade
# Date/Time:  Thu Jan 22 19:18:24 2015
#---------------------------------------------------------
:version 1.10
:name HOM
:units
  mass 1.0
  length 1.000000
  angle deg
:documentation
     Acclaim Skeleton File
:root
   axis xyz
   order TX TY TZ RX RY RZ
   position 0.000000 0.000000 0.000000
   orientation 0 0 0
:bonedata
   begin
      id 1
      name RightUpLeg_dum
      direction -1.000000 0.000000 0.000000
      length 4.478084
      axis 0.0 0.0 0.0 xyz
   end
   begin
      id 2
      name LeftUpLeg_dum
      direction 1.000000 0.000000 0.000000
      length 4.478084
      axis 0.0 0.0 0.0 xyz
   end
   begin
      id 3
      name Spine_dum
      direction 0.000000 1.000000 0.000000
      length 6.068208
      axis 0.0 0.0 0.0 xyz
   end
   begin
      id 4
      name RightUpLeg
      direction 0.000000 -1.000000 0.000000
      length 16.405774
      axis 0.0 0.0 0.0 xyz
      dof rx ry rz
   end
   begin
      id 5
      name RightLeg
      direction 0.000000 -1.000000 0.000000
      length 14.644143
      axis 0.0 0.0 0.0 xyz
      dof rx ry rz
   end
   begin
      id 6
      name RightFoot
      direction 0.000000 -0.258819 0.965926
      length 5.806150
      axis 15.0 0.0 0.0 xyz
      dof rx ry rz
   end
   begin
      id 7
      name RightToeBase
      direction 0.000000 0.000000 1.000000
      length 2.952750
      axis 0.0 0.0 0.0 xyz
      dof rx ry rz
   end
   begin
      id 8
      name LeftUpLeg
      direction 0.000000 -1.000000 0.000000
      length 16.405774
      axis 0.0 0.0 0.0 xyz
      dof rx ry rz
   end
   begin
      id 9
      name LeftLeg
      direction 0.000000 -1.000000 0.000000
      length 14.644143
      axis 0.0 0.0 0.0 xyz
      dof rx ry rz
   end
   begin
      id 10
      name LeftFoot
      direction 0.000000 -0.258819 0.965926
      length 5.806150
      axis 15.0 0.0 0.0 xyz
      dof rx ry rz
   end
   begin
      id 11
      name LeftToeBase
      direction 0.000000 0.000000 1.000000
      length 2.952750
      axis 0.0 0.0 0.0 xyz
      dof rx ry rz
   end
   begin
      id 12
      name Spine
      direction 0.000000 1.000000 0.000000
      length 0.000000
      axis 0.0 0.0 0.0 xyz
      dof rx ry rz
   end
   begin
      id 13
      name Spine_dum1
      direction 0.000000 1.000000 0.000000
      length 10.013923
      axis 0.0 0.0 0.0 xyz
   end
   begin
      id 14
      name Spine_dum2
      direction 0.000000 1.000000 0.000000
      length 10.013923
      axis 0.0 0.0 0.0 xyz
   end
   begin
      id 15
      name Spine_dum3
      direction 0.000000 1.000000 0.000000
      length 15.777476
      axis 0.0 0.0 0.0 xyz
   end
   begin
      id 16
      name RightShoulder
      direction -1.000000 0.000000 0.000000
      length 7.190220
      axis 0.0 0.0 90.0 xyz
      dof rx ry rz
   end
   begin
      id 17
      name RightArm
      direction -1.000000 0.000000 0.000000
      length 10.177469
      axis 0.0 0.0 90.0 xyz
      dof rx ry rz
   end
   begin
      id 18
      name RightForeArm
      direction -1.000000 0.000000 0.000000
      length 8.392114
      axis 0.0 0.0 90.0 xyz
      dof ry rz rx
   end
   begin
      id 19
      name RightHand
      direction -1.000000 0.000000 0.000000
      length 0.000000
      axis 0.0 0.0 90.0 xyz
      dof rx ry rz
   end
   begin
      id 20
      name RightHand_dum1
      direction -1.000000 0.000000 0.000000
      length 3.937000
      axis 0.0 0.0 90.0 xyz
   end
   begin
      id 21
      name RightHand_dum2
      direction 0.000000 0.000000 0.000000
      length 0.000000
      axis 0.0 0.0 90.0 xyz
   end
   begin
      id 22
      name RightHandThumb1
      direction 0.000000 0.000000 1.000000
      length 3.937000
      axis 0.0 0.0 90.0 xyz
      dof rx rz ry
   end
   begin
      id 23
      name LeftShoulder
      direction 1.000000 0.000000 0.000000
      length 7.190220
      axis 0.0 0.0 -90.0 xyz
      dof rx ry rz
   end
   begin
      id 24
      name LeftArm
      direction 1.000000 0.000000 0.000000
      length 10.177469
      axis 0.0 0.0 -90.0 xyz
      dof rx ry rz
   end
   begin
      id 25
      name LeftForeArm
      direction 1.000000 0.000000 0.000000
      length 8.392114
      axis 0.0 0.0 -90.0 xyz
      dof ry rz rx
   end
   begin
      id 26
      name LeftHand
      direction 1.000000 0.000000 0.000000
      length 0.000000
      axis 0.0 0.0 -90.0 xyz
      dof rx ry rz
   end
   begin
      id 27
      name LeftHand_dum1
      direction 1.000000 0.000000 0.000000
      length 3.937000
      axis 0.0 0.0 -90.0 xyz
   end
   begin
      id 28
      name LeftHand_dum2
      direction 0.000000 0.000000 0.000000
      length 0.000000
      axis 0.0 0.0 -90.0 xyz
   end
   begin
      id 29
      name LeftHandThumb1
      direction 0.000000 0.000000 1.000000
      length 3.937000
      axis 0.0 0.0 -90.0 xyz
      dof rx rz ry
   end
   begin
      id 30
      name Head
      direction 0.000000 1.000000 0.000000
      length 4.527550
      axis 0.0 0.0 0.0 xyz
      dof rx ry rz
   end
:hierarchy
   begin
      root RightUpLeg_dum LeftUpLeg_dum Spine_dum
      RightUpLeg_dum RightUpLeg
      LeftUpLeg_dum LeftUpLeg
      Spine_dum Spine
      RightUpLeg RightLeg
      RightLeg RightFoot
      RightFoot RightToeBase
      LeftUpLeg LeftLeg
      LeftLeg LeftFoot
      LeftFoot LeftToeBase
      Spine Spine_dum1 Spine_dum2 Spine_dum3
      Spine_dum1 RightShoulder
      Spine_dum2 LeftShoulder
      Spine_dum3 Head
      RightShoulder RightArm
      RightArm RightForeArm
      RightForeArm RightHand
      RightHand RightHand_dum1 RightHand_dum2
      RightHand_dum2 RightHandThumb1
      LeftShoulder LeftArm
      LeftArm LeftForeArm
      LeftForeArm LeftHand
      LeftHand LeftHand_dum1 LeftHand_dum2
      LeftHand_dum2 LeftHandThumb1
   end

# File created by Blade
# Date/Time:  Thu Jan 22 19:18:16 2015
# Frame Rate: 120.000 fps
#------------------------------------------------------
:FULLY-SPECIFIED
:DEGREES
157
root -0.382935 33.081760 -0.941041 8.794469 -2.880417 3.382110
RightUpLeg -5.758075 -15.303965 -6.856822
RightLeg 3.676131 -0.000000 -0.000000
RightFoot -11.226109 -7.154270 1.631888
RightToeBase 4.405190 -0.000000 -0.000000
LeftUpLeg -3.890695 6.770017 2.348634
LeftLeg 2.118531 -0.000000 -0.000000
LeftFoot -9.289545 -0.313755 -18.854818
LeftToeBase 5.917429 -0.000000 -0.000000
Spine -8.545815 -2.433445 -1.642205
RightShoulder -18.546473 -11.212342 -25.551238
RightArm 22.829113 26.465209 39.993370
RightForeArm -16.162921 0.000000 11.255981
RightHand 11.030314 0.000000 9.191430
RightHandThumb1 -24.326973 -0.000000 -32.862282
LeftShoulder -23.508345 5.858475 29.563417
LeftArm 16.933281 -28.113622 -36.745227
LeftForeArm 24.400790 -0.000000 1.354603
LeftHand -2.342236 -0.000000 -8.567109
LeftHandThumb1 -26.253704 0.000000 33.147579
Head -3.254271 2.674675 0.143195
158
root -0.389084 33.082613 -0.937287 8.851132 -2.637051 3.409053
RightUpLeg -5.669965 -15.315016 -6.849676
RightLeg 3.517661 -0.000000 -0.000000
RightFoot -11.138363 -7.418776 1.802280
RightToeBase 4.107613 -0.000000 -0.000000
LeftUpLeg -4.020333 6.719104 2.345915
LeftLeg 2.216771 -0.000000 -0.000000
LeftFoot -9.330189 -0.489462 -18.691130
LeftToeBase 5.123568 -0.000000 -0.000000
Spine -8.646429 -2.551373 -1.589907
RightShoulder -18.546605 -11.323095 -25.568070
RightArm 22.764885 26.543312 40.002789
RightForeArm -16.215167 -0.000000 11.316093
RightHand 10.951253 0.000000 9.045868
RightHandThumb1 -24.326973 -0.000000 -32.862282
LeftShoulder -23.402109 5.815695 29.554503
LeftArm 17.058197 -28.080507 -36.926525
LeftForeArm 24.487095 -0.000000 1.436590
LeftHand -2.451316 -0.000000 -8.470634
LeftHandThumb1 -26.253704 0.000000 33.147579
Head -3.029923 2.575942 -0.033228
159
root -0.396333 33.084485 -0.935083 8.918401 -2.370735 3.445661
RightUpLeg -5.590947 -15.307225 -6.851959
RightLeg 3.371564 -0.000000 -0.000000
RightFoot -11.057754 -7.614024 2.047977
RightToeBase 4.091795 -0.000000 -0.000000
LeftUpLeg -4.185582 6.686010 2.333855
LeftLeg 2.347559 -0.000000 -0.000000
LeftFoot -9.354159 -0.692167 -18.525525
LeftToeBase 4.334940 -0.000000 -0.000000
Spine -8.761963 -2.666786 -1.546164
RightShoulder -18.557148 -11.477435 -25.570230
RightArm 22.718500 26.677150 40.026559
RightForeArm -16.127163 0.000000 11.367247
RightHand 11.150483 -0.000000 9.187513
RightHandThumb1 -24.326973 -0.000000 -32.862282
LeftShoulder -23.266091 5.781238 29.539487
LeftArm 17.214939 -28.024166 -37.111098
LeftForeArm 24.516058 -0.000000 1.475283
LeftHand -2.382955 0.000000 -8.407080
LeftHandThumb1 -26.253704 0.000000 33.147579
Head -2.753807 2.452374 -0.209733
160
root -0.408741 33.086196 -0.928022 8.952124 -2.092998 3.462846
RightUpLeg -5.455311 -15.274347 -6.848628
RightLeg 3.210026 -0.000000 -0.000000
RightFoot -10.963595 -7.781582 2.422702
RightToeBase 4.135359 -0.000000 -0.000000
LeftUpLeg -4.310242 6.670620 2.354389
LeftLeg 2.475150 -0.000000 -0.000000
LeftFoot -9.384073 -0.900757 -18.383672
LeftToeBase 3.552980 -0.000000 -0.000000
Spine -8.847136 -2.810008 -1.480578
RightShoulder -18.534408 -11.547780 -25.596672
RightArm 22.619643 26.790467 40.031135
RightForeArm -16.242907 -0.000000 11.408170
RightHand 11.390733 -0.000000 9.159151
RightHandThumb1 -24.326973 -0.000000 -32.862282
LeftShoulder -23.153980 5.755345 29.517536
LeftArm 17.376343 -27.894740 -37.274640
LeftForeArm 24.472865 -0.000000 1.505784
LeftHand -2.366032 -0.000000 -8.366742
LeftHandThumb1 -26.253704 0.000000 33.147579
Head -2.466729 2.357185 -0.396052
161
root -0.421768 33.087298 -0.916890 8.957558 -1.758856 3.496441
RightUpLeg -5.260821 -15.358945 -6.871152
RightLeg 3.030995 -0.000000 -0.000000
RightFoot -10.875025 -7.889565 2.986485
RightToeBase 3.890143 -0.000000 -0.000000
LeftUpLeg -4.419531 6.616327 2.367411
LeftLeg 2.631521 -0.000000 -0.000000
LeftFoot -9.448462 -1.123298 -18.203810
LeftToeBase 2.533353 -0.000000 -0.000000
Spine -8.913388 -3.011201 -1.416246
RightShoulder -18.484522 -11.630765 -25.621029
RightArm 22.484546 26.799401 39.961264
RightForeArm -16.144926 -0.000000 11.497092
RightHand 11.271530 -0.000000 9.274225
RightHandThumb1 -24.326973 -0.000000 -32.862282
LeftShoulder -23.032051 5.744342 29.476769
LeftArm 17.545388 -27.769434 -37.425891
LeftForeArm 24.447892 -0.000000 1.521859
LeftHand -2.359551 -0.000000 -8.356594
LeftHandThumb1 -26.253704 0.000000 33.147579
Head -2.133872 2.239509 -0.612577
162
root -0.437000 33.088469 -0.905708 8.952339 -1.415545 3.514836
RightUpLeg -5.045049 -15.510890 -6.885757
RightLeg 2.832702 -0.000000 -0.000000
RightFoot -10.748922 -7.837040 3.951479
RightToeBase 3.611689 -0.000000 -0.000000
LeftUpLeg -4.522269 6.549968 2.402083
LeftLeg 2.807994 -0.000000 -0.000000
LeftFoot -9.589029 -1.320760 -18.106581
LeftToeBase 1.666346 -0.000000 -0.000000
Spine -8.954991 -3.219959 -1.339467
RightShoulder -18.477461 -11.776974 -25.656727
RightArm 22.433322 26.934300 40.042048
RightForeArm -16.219018 -0.000000 11.600879
RightHand 11.334083 -0.000000 9.162584
RightHandThumb1 -24.326973 -0.000000 -32.862282
LeftShoulder -22.941581 5.736280 29.446787
LeftArm 17.740907 -27.612671 -37.610496
LeftForeArm 24.440691 -0.000000 1.548908
LeftHand -2.305768 -0.000000 -8.265162
LeftHandThumb1 -26.253704 0.000000 33.147579
Head -1.815070 2.127245 -0.813929
163
root -0.456164 33.088991 -0.893753 8.932608 -1.026531 3.540684
RightUpLeg -4.805506 -15.680159 -6.916383
RightLeg 2.676323 -0.000000 -0.000000
RightFoot -10.670425 -7.790427 4.895024
RightToeBase 3.570134 -0.000000 -0.000000
LeftUpLeg -4.628569 6.517664 2.441443
LeftLeg 3.010430 -0.000000 -0.000000
LeftFoot -9.732226 -1.584866 -18.016382
LeftToeBase 0.849543 -0.000000 -0.000000
Spine -8.974267 -3.441483 -1.280489
RightShoulder -18.473591 -11.836352 -25.692366
RightArm 22.289076 26.950840 40.031085
RightForeArm -16.314442 -0.000000 11.682081
RightHand 11.369287 -0.000000 9.100144
RightHandThumb1 -24.326973 -0.000000 -32.862282
LeftShoulder -22.851737 5.777808 29.387540
LeftArm 18.027913 -27.483730 -37.825172
LeftForeArm 24.474537 0.000000 1.583557
LeftHand -2.264380 -0.000000 -8.315826
LeftHandThumb1 -26.253704 0.000000 33.147579
Head -1.483346 1.996216 -1.011830
164
root -0.476611 33.089250 -0.883157 8.930053 -0.626440 3.561407
RightUpLeg -4.596391 -15.920730 -6.942472
RightLeg 2.534777 -0.000000 -0.000000
RightFoot -10.642054 -7.689916 5.726406
RightToeBase 3.534204 -0.000000 -0.000000
LeftUpLeg -4.755785 6.503799 2.485197
LeftLeg 3.216963 -0.000000 -0.000000
LeftFoot -9.918046 -1.801486 -17.855116
LeftToeBase -0.252304 -0.000000 0.000000
Spine -9.010267 -3.689972 -1.210812
RightShoulder -18.468363 -11.928167 -25.702819
RightArm 22.205428 27.012350 40.018518
RightForeArm -16.262171 0.000000 11.737890
RightHand 11.260543 -0.000000 9.206980
RightHandThumb1 -24.326973 -0.000000 -32.862282
LeftShoulder -22.749931 5.748155 29.350469
LeftArm 18.226587 -27.288419 -37.967367
LeftForeArm 24.449362 -0.000000 1.608920
LeftHand -2.298397 -0.000000 -8.290526
LeftHandThumb1 -26.253704 0.000000 33.147579
Head -1.167797 1.854754 -1.206885
165
root -0.501302 33.088074 -0.870188 8.922778 -0.218122 3.574745
RightUpLeg -4.368389 -16.181481 -6.960605
RightLeg 2.406010 -0.000000 -0.000000
RightFoot -10.669774 -7.568072 6.355278
RightToeBase 3.604861 -0.000000 -0.000000
LeftUpLeg -4.892271 6.570650 2.540889
LeftLeg 3.451711 -0.000000 -0.000000
LeftFoot -10.095919 -2.063632 -17.681116
LeftToeBase -0.923307 -0.000000 0.000000
Spine -9.053577 -3.947464 -1.139894
RightShoulder -18.442327 -12.017940 -25.727555
RightArm 22.074942 27.027106 40.003299
RightForeArm -16.198887 0.000000 11.821307
RightHand 11.363045 -0.000000 9.207854
RightHandThumb1 -24.326973 -0.000000 -32.862282
LeftShoulder -22.627450 5.664159 29.376062
LeftArm 18.367675 -27.120596 -38.154265
LeftForeArm 24.550621 -0.000000 1.663349
LeftHand -2.230168 -0.000000 -8.379785
LeftHandThumb1 -26.253704 0.000000 33.147579
Head -0.804127 1.769935 -1.378352
166
root -0.528197 33.087145 -0.857137 8.922321 0.170047 3.585195
RightUpLeg -4.162683 -16.336334 -6.979284
RightLeg 2.299071 -0.000000 -0.000000
RightFoot -10.691669 -7.552896 6.677696
RightToeBase 3.629782 -0.000000 -0.000000
LeftUpLeg -5.017055 6.601681 2.611448
LeftLeg 3.675687 -0.000000 -0.000000
LeftFoot -10.404918 -2.210453 -17.775833
LeftToeBase -1.279322 -0.000000 0.000000
Spine -9.101836 -4.193953 -1.075137
RightShoulder -18.423274 -12.079369 -25.740611
RightArm 21.970262 27.083694 39.999026
RightForeArm -16.257715 -0.000000 11.901634
RightHand 11.292832 -0.000000 9.165056
RightHandThumb1 -24.326973 -0.000000 -32.862282
LeftShoulder -22.521079 5.619285 29.380109
LeftArm 18.513653 -26.860064 -38.287217
LeftForeArm 24.535288 -0.000000 1.701704
LeftHand -2.247877 -0.000000 -8.394131
LeftHandThumb1 -26.253704 0.000000 33.147579
Head -0.431715 1.640037 -1.550345
167
root -0.556461 33.086671 -0.848384 8.937261 0.546562 3.598411
RightUpLeg -4.003382 -16.470940 -6.999151
RightLeg 2.237264 -0.000000 -0.000000
RightFoot -10.719399 -7.469297 6.937606
RightToeBase 3.547993 -0.000000 -0.000000
LeftUpLeg -5.168424 6.671312 2.668741
LeftLeg 3.902810 -0.000000 -0.000000
LeftFoot -10.729913 -2.116945 -17.573752
LeftToeBase -2.052973 -0.000000 0.000000
Spine -9.146092 -4.424437 -1.025877
RightShoulder -18.434102 -12.169428 -25.702939
RightArm 21.921621 27.102223 39.964979
RightForeArm -16.240306 -0.000000 11.936414
RightHand 11.354664 -0.000000 8.958497
RightHandThumb1 -24.326973 -0.000000 -32.862282
LeftShoulder -22.432262 5.623349 29.376833
LeftArm 18.686525 -26.606257 -38.442170
LeftForeArm 24.460343 -0.000000 1.812464
LeftHand -2.198268 0.000000 -8.452902
LeftHandThumb1 -26.253704 0.000000 33.147579
Head -0.108229 1.544857 -1.700540
